# xmcd
#
# Track frame offsets:
#	150
#	13014
#	27896
#	44256
#	57854
#	71627
#	92010
#
# Disc length: 1478 seconds
#
# Revision: 1
# Processed by: cddbd v1.5.2PL0 Copyright (c) Steve Scherf et al.
# Submitted via: audiograbber 1.83.01
#
DISCID=5305c407
DTITLE=Old Riley and The Water - Biting Through
DYEAR=2018
DGENRE=Blues
TTITLE0=Howlin For My Darlin
TTITLE1=Blues Walking
TTITLE2=Kind-Hearted Woman
TTITLE3=Biting Through
TTITLE4=Try and Understand
TTITLE5=Trouble
TTITLE6=Power To Change
EXTD=
EXTT0=
EXTT1=
EXTT2=
EXTT3=
EXTT4=
EXTT5=
EXTT6=
PLAYORDER=
